<svg height="64" viewBox="0 0 64 64" width="64" xmlns="http://www.w3.org/2000/svg"><g transform="matrix(.7228812113 0 0 .7228812113 -5.76129622168 -33.63330195485)"><g fill="none" stroke-miterlimit="10"><path d="m52.200001 79.300003-9.200001-10.400001" stroke="#284a6a" stroke-width=".36"/><path d="m23.200001 71.300003 7.199999 10.5" stroke="#284a6a" stroke-width=".18"/><path d="m52.200001 79.300003 9.099998-10.5" stroke="#284a6a" stroke-width=".36"/><path d="m63.200001 90.900002 10.799999-9.099999" stroke="#284a6a" stroke-width=".36"/><path d="m63.200001 90.900002 10.799999 9.499998" stroke="#284a6a" stroke-width=".36"/><path d="m61.400002 112.4-9.200001-10.2" stroke="#284a6a" stroke-width=".36"/><path d="m43 112.4 9.200001-10.2" stroke="#284a6a" stroke-width=".36"/><path d="m30.4 100 10.399999-9.099998" stroke="#284a6a" stroke-width=".36"/><path d="m30.4 81.800003 10.399999 9.099999" stroke="#284a6a" stroke-width=".36"/><path d="m52.200001 79.300003-21.800001 2.5" stroke="#284a6a" stroke-width=".36"/><path d="m52.200001 79.300003 21.799999 2.5" stroke="#284a6a" stroke-width=".36"/><path d="m63.200001 90.900002-1.900002-22.099999" stroke="#284a6a" stroke-width=".36"/><path d="m63.200001 90.900002-1.799999 21.499998" stroke="#284a6a" stroke-width=".36"/><path d="m74 100.4-21.799999 1.8" stroke="#284a6a" stroke-width=".36"/><path d="m30.4 100 21.800001 2.2" stroke="#284a6a" stroke-width=".36"/><path d="m43 112.4-2.200001-21.499998" stroke="#284a6a" stroke-width=".36"/><path d="m43 68.900002-2.200001 22" stroke="#284a6a" stroke-width=".36"/><path d="m20.4 84.599998 10-2.799995" stroke="#284a6a" stroke-width=".18"/><path d="m32.5 61.400002 10.5 7.5" stroke="#284a6a" stroke-width=".18"/><path d="m45.400002 56.700001-2.400002 12.200001" stroke="#284a6a" stroke-width=".18"/><path d="m45.400002 56.700001 15.899997 12.100002" stroke="#284a6a" stroke-width=".18"/><path d="m58.900002 56.700001 2.399997 12.100002" stroke="#284a6a" stroke-width=".18"/><path d="m71.800003 61.400002-10.500004 7.400001" stroke="#284a6a" stroke-width=".18"/><path d="m81.199997 71.300003-19.899998-2.5" stroke="#284a6a" stroke-width=".18"/><path d="m74 81.800003 7.199997-10.5" stroke="#284a6a" stroke-width=".18"/><path d="m74 81.800003 10.199997 2.799995" stroke="#284a6a" stroke-width=".18"/><path d="m74 81.800003 10 15.199997" stroke="#284a6a" stroke-width=".18"/><path d="m58.900002 56.700001-15.900002 12.200001" stroke="#284a6a" stroke-width=".18"/><path d="m74 81.800003-2.199997-20.400001" stroke="#284a6a" stroke-width=".18"/><path d="m74 100.4 10-3.4" stroke="#284a6a" stroke-width=".18"/><path d="m74 100.4 10.199997-15.800002" stroke="#284a6a" stroke-width=".18"/><path d="m74 100.4 7.199997 9.7" stroke="#284a6a" stroke-width=".18"/><path d="m74 100.4-2.199997 19.6" stroke="#284a6a" stroke-width=".18"/><path d="m61.400002 112.4 10.400001 7.6" stroke="#284a6a" stroke-width=".18"/><path d="m61.400002 112.4 19.799995-2.3" stroke="#284a6a" stroke-width=".18"/><path d="m61.400002 112.4-2.400002 12.3" stroke="#284a6a" stroke-width=".18"/><path d="m61.400002 112.4-16 12.3" stroke="#284a6a" stroke-width=".18"/><path d="m43 112.4 2.400002 12.3" stroke="#284a6a" stroke-width=".18"/><path d="m43 112.4 16 12.3" stroke="#284a6a" stroke-width=".18"/><path d="m43 112.4-10.5 7.6" stroke="#284a6a" stroke-width=".18"/><path d="m43 112.4-19.799999-2.2" stroke="#284a6a" stroke-width=".18"/><path d="m30.4 100-7.199999 10.2" stroke="#284a6a" stroke-width=".18"/><path d="m30.4 100 2.1 20" stroke="#284a6a" stroke-width=".18"/><path d="m30.4 100-10.100001-3.099998" stroke="#284a6a" stroke-width=".18"/><path d="m30.4 81.800003-10.100001 15.099999" stroke="#284a6a" stroke-width=".18"/><path d="m30.4 100-10-15.400002" stroke="#284a6a" stroke-width=".18"/><path d="m32.5 61.400002-2.1 20.400001" stroke="#284a6a" stroke-width=".18"/><path d="m23.200001 71.300003 19.799999-2.400001" stroke="#284a6a" stroke-width=".18"/><path d="m32.5 61.400002-7.700001-3.600003" stroke="#24405d" stroke-width=".14"/><path d="m32.5 61.400002-.6-8.400002" stroke="#24405d" stroke-width=".14"/><path d="m45.400002 56.700001-13.500002-3.700001" stroke="#24405d" stroke-width=".14"/><path d="m45.400002 56.700001-5.800004-7.100003" stroke="#24405d" stroke-width=".14"/><path d="m45.400002 56.700001 2.399997-8.5" stroke="#24405d" stroke-width=".14"/><path d="m32.5 61.400002 7.099998-11.800004" stroke="#24405d" stroke-width=".14"/><path d="m58.900002 56.700001-11.100003-8.5" stroke="#24405d" stroke-width=".14"/><path d="m58.900002 56.700001-2.5-8.799999" stroke="#24405d" stroke-width=".14"/><path d="m45.400002 56.700001 11-8.799999" stroke="#24405d" stroke-width=".14"/><path d="m58.900002 56.700001 5.799995-7.100003" stroke="#24405d" stroke-width=".14"/><path d="m71.800003 61.400002-7.100006-11.800004" stroke="#24405d" stroke-width=".14"/><path d="m71.800003 61.400002.699997-8.400002" stroke="#24405d" stroke-width=".14"/><path d="m58.900002 56.700001 13.599998-3.700001" stroke="#24405d" stroke-width=".14"/><path d="m71.800003 61.400002 7.899994-4" stroke="#24405d" stroke-width=".14"/><path d="m71.800003 61.400002 13.699997 2.099998" stroke="#24405d" stroke-width=".14"/><path d="m81.199997 71.300003 4.300003-7.800003" stroke="#24405d" stroke-width=".14"/><path d="m81.199997 71.300003-1.5-13.900001" stroke="#24405d" stroke-width=".14"/><path d="m81.199997 71.300003 9-.700005" stroke="#24405d" stroke-width=".14"/><path d="m81.199997 71.300003 12.300003 7" stroke="#24405d" stroke-width=".14"/><path d="m84.199997 84.599998 6-14" stroke="#24405d" stroke-width=".14"/><path d="m84.199997 84.599998 9.300003-6.299995" stroke="#24405d" stroke-width=".14"/><path d="m84.199997 84.599998 10.400001 2.099999" stroke="#24405d" stroke-width=".14"/><path d="m84 97 10.599998-10.300003" stroke="#24405d" stroke-width=".14"/><path d="m84 97 10.900002-2" stroke="#24405d" stroke-width=".14"/><path d="m84.199997 84.599998 10.700005 10.400002" stroke="#24405d" stroke-width=".14"/><path d="m84 97 9.300003 6.2" stroke="#24405d" stroke-width=".14"/><path d="m81.199997 110.1 12.100006-6.9" stroke="#24405d" stroke-width=".14"/><path d="m81.199997 110.1 8.900001.9" stroke="#24405d" stroke-width=".14"/><path d="m84 97 6.099998 14" stroke="#24405d" stroke-width=".14"/><path d="m81.199997 110.1 4.200005 7.9" stroke="#24405d" stroke-width=".14"/><path d="m81.199997 110.1-1.599999 13.8" stroke="#24405d" stroke-width=".14"/><path d="m79.599998 123.9-7.799995-3.9" stroke="#24405d" stroke-width=".14"/><path d="m71.800003 120 .599999 8.7" stroke="#24405d" stroke-width=".14"/><path d="m71.800003 120 13.599999-2" stroke="#24405d" stroke-width=".14"/><path d="m71.800003 120-7.100006 12" stroke="#24405d" stroke-width=".14"/><path d="m59 124.7 5.699997 7.3" stroke="#24405d" stroke-width=".14"/><path d="m59 124.7 13.400002 4" stroke="#24405d" stroke-width=".14"/><path d="m59 124.7-2.599998 9" stroke="#24405d" stroke-width=".14"/><path d="m59 124.7-11.200001 9" stroke="#24405d" stroke-width=".14"/><path d="m45.400002 124.7 2.399997 9" stroke="#24405d" stroke-width=".14"/><path d="m45.400002 124.7 11 9" stroke="#24405d" stroke-width=".14"/><path d="m45.400002 124.7-5.700001 7.3" stroke="#24405d" stroke-width=".14"/><path d="m32.5 120 7.200001 12" stroke="#24405d" stroke-width=".14"/><path d="m45.400002 124.7-13.600003 4.19999" stroke="#24405d" stroke-width=".14"/><path d="m32.5 120-.700001 8.89999" stroke="#24405d" stroke-width=".14"/><path d="m32.5 120-7.799999 4.3" stroke="#24405d" stroke-width=".14"/><path d="m23.200001 110.2 1.5 14.1" stroke="#24405d" stroke-width=".14"/><path d="m32.5 120-13.700001-1.9" stroke="#24405d" stroke-width=".14"/><path d="m23.200001 110.2-4.400002 7.9" stroke="#24405d" stroke-width=".14"/><path d="m23.200001 110.2-9.000001.9" stroke="#24405d" stroke-width=".14"/><path d="m23.200001 110.2-12.400001-6.9" stroke="#24405d" stroke-width=".14"/><path d="m20.299999 96.900002-9.499999 6.399998" stroke="#24405d" stroke-width=".14"/><path d="m20.299999 96.900002-10.799999-1.900002" stroke="#24405d" stroke-width=".14"/><path d="m20.299999 96.900002-6.099999 14.199998" stroke="#24405d" stroke-width=".14"/><path d="m20.4 84.599998-10.9 10.400002" stroke="#24405d" stroke-width=".14"/><path d="m20.299999 96.900002-10.799999-10.200005" stroke="#24405d" stroke-width=".14"/><path d="m20.4 84.599998-9.3-6.199996" stroke="#24405d" stroke-width=".14"/><path d="m20.4 84.599998-10.9 2.099999" stroke="#24405d" stroke-width=".14"/><path d="m20.4 84.599998-6.2-14" stroke="#24405d" stroke-width=".14"/><path d="m23.200001 71.300003-9.000001-.700005" stroke="#24405d" stroke-width=".14"/><path d="m23.200001 71.300003-12.100001 7.099999" stroke="#24405d" stroke-width=".14"/><path d="m23.200001 71.300003-4.300001-7.400001" stroke="#24405d" stroke-width=".14"/><path d="m23.200001 71.300003 1.599998-13.500004" stroke="#24405d" stroke-width=".14"/><path d="m32.5 61.400002-13.6 2.5" stroke="#24405d" stroke-width=".14"/></g><path d="m35.599998 85.599998h10.5v10.52h-10.5z" fill="#256ea5" transform="matrix(.00698126 -.99997563 .99997563 .00698126 -50.4 131.1)"/><path d="m46.900002 74h10.5v10.52h-10.5z" fill="#256ea5" transform="matrix(.00698126 -.99997563 .99997563 .00698126 -27.5 130.900001)"/><path d="m46.900002 97h10.5v10.52h-10.5z" fill="#256ea5" transform="matrix(.00698126 -.99997563 .99997563 .00698126 -50.500004 153.800003)"/><path d="m58.400002 85.599998h10.5v10.52h-10.5z" fill="#256ea5" transform="matrix(.00698126 -.99997563 .99997563 .00698126 -27.7 153.8)"/><path d="m57.700001 65.199997h7.3v7.33h-7.3z" fill="#3378bc" transform="matrix(.00698126 -.99997563 .99997563 .00698126 -7.9 129.7)"/><path d="m39.400002 65.199997h7.3v7.33h-7.3z" fill="#3378bc" transform="matrix(.00698126 -.99997563 .99997563 .00698126 -26.1 111.4)"/><path d="m26.700001 78.099998h7.3v7.33h-7.3z" fill="#3378bc" transform="matrix(.00698126 -.99997563 .99997563 .00698126 -51.6 111.600001)"/><path d="m26.799999 96.5h7.3v7.33h-7.3z" fill="#3378bc" transform="matrix(.01047178 -.99994517 .99994517 .01047178 -70.100002 129.600002)"/><path d="m70.400002 96.400002h7.3v7.33h-7.3z" fill="#3378bc" transform="matrix(.00698126 -.99997563 .99997563 .00698126 -26.500003 173.400003)"/><path d="m70.599998 78.199997h7.3v7.33h-7.3z" fill="#3378bc" transform="matrix(.01047178 -.99994517 .99994517 .01047178 -8.4 155.299999)"/><path d="m20.700001 68.900002h4.8v4.79h-4.8z" fill="#169bd6" transform="matrix(.00698126 -.99997563 .99997563 .00698126 -48.3 93.9)"/><path d="m30.1 59.099998h4.8v4.79h-4.8z" fill="#169bd6" transform="matrix(.00698126 -.99997563 .99997563 .00698126 -29.200001 93.6)"/><path d="m43 54.400002h4.8v4.79h-4.8z" fill="#169bd6" transform="matrix(.00698126 -.99997563 .99997563 .00698126 -11.7 101.7)"/><path d="m17.9 82.199997h4.8v4.76h-4.8z" fill="#169bd6" transform="matrix(.00698126 -.99997563 .99997563 .00698126 -64.400001 104.3)"/><path d="m78.800003 68.900002h4.8v4.79h-4.8z" fill="#169bd6" transform="matrix(.99997563 -.00698126 .00698126 .99997563 -.5 .6)"/><path d="m69.400002 59h4.8v4.79h-4.8z" fill="#169bd6" transform="matrix(.99997563 -.00698126 .00698126 .99997563 -.4 .5)"/><path d="m56.5 54.299999h4.8v4.79h-4.8z" fill="#169bd6" transform="matrix(.99997563 -.00698126 .00698126 .99997563 -.4 .4)"/><path d="m81.599998 82.199997h4.8v4.79h-4.8z" fill="#169bd6" transform="matrix(.99997563 -.00698126 .00698126 .99997563 -.6 .6)"/><path d="m39.299999 108.9h7.3v7.33h-7.3z" fill="#3378bc" transform="matrix(.00698126 -.99997563 .99997563 .00698126 -69.899997 154.799997)"/><path d="m57.599998 108.9h7.3v7.33h-7.3z" fill="#3378bc" transform="matrix(.00698126 -.99997563 .99997563 .00698126 -51.7 173.1)"/><path d="m78.800003 107.8h4.8v4.79h-4.8z" fill="#169bd6" transform="matrix(.00698126 -.99997563 .99997563 .00698126 -29.600004 190.600004)"/><path d="m69.400002 117.6h4.8v4.79h-4.8z" fill="#169bd6" transform="matrix(.00698126 -.99997563 .99997563 .00698126 -48.599999 190.999999)"/><path d="m56.5 122.3h4.8v4.79h-4.8z" fill="#169bd6" transform="matrix(.00698126 -.99997563 .99997563 .00698126 -66.099998 182.799998)"/><path d="m81.599998 94.400002h4.8v4.79h-4.8z" fill="#169bd6" transform="matrix(.00698126 -.99997563 .99997563 .00698126 -13.4 180.200001)"/><path d="m20.799999 107.7h4.8v4.79h-4.8z" fill="#169bd6" transform="matrix(.99997563 -.00698126 .00698126 .99997563 -.8 .2)"/><path d="m30.1 117.6h4.8v4.79h-4.8z" fill="#169bd6" transform="matrix(.99997563 -.00698126 .00698126 .99997563 -.8 .2)"/><path d="m43 122.3h4.8v4.79h-4.8z" fill="#169bd6" transform="matrix(.99997563 -.00698126 .00698126 .99997563 -.9 .3)"/><path d="m18 94.5h4.8v4.79h-4.8z" fill="#169bd6" transform="matrix(.99997563 -.00698126 .00698126 .99997563 -.7 .1)"/><path d="m23.5 56.400002h2.6v2.65h-2.6z" fill="#00a8da" transform="matrix(.00698126 -.99997563 .99997563 .00698126 -33.1 82.1)"/><path d="m8.2 85.400002h2.6v2.65h-2.6z" fill="#00a8da" transform="matrix(.00698126 -.99997563 .99997563 .00698126 -77.2 95.6)"/><path d="m9.8 77.099998h2.6v2.65h-2.6z" fill="#00a8da" transform="matrix(.00698126 -.99997563 .99997563 .00698126 -67.4 88.999999)"/><path d="m38.299999 48.299999h2.6v2.65h-2.6z" fill="#00a8da" transform="matrix(.00698126 -.99997563 .99997563 .00698126 -10.2 88.900001)"/><path d="m13 69.300003h2.6v2.65h-2.6z" fill="#00a8da" transform="matrix(.00698126 -.99997563 .99997563 .00698126 -56.4 84.400001)"/><path d="m17.700001 62.299999h2.6v2.65h-2.6z" fill="#00a8da" transform="matrix(.00698126 -.99997563 .99997563 .00698126 -44.7 82.1)"/><path d="m30.6 51.700001h2.6v2.65h-2.6z" fill="#00a8da" transform="matrix(.99997563 -.00698126 .00698126 .99997563 -.4 .2)"/><path d="m46.599998 46.599998h2.6v2.65h-2.6z" fill="#00a8da" transform="matrix(.99997563 -.00698126 .00698126 .99997563 -.3 .3)"/><path d="m88.900002 69.300003h2.6v2.65h-2.6z" fill="#00a8da" transform="matrix(.00698126 -.99997563 .99997563 .00698126 18.9 160.3)"/><path d="m92.199997 77.099998h2.6v2.65h-2.6z" fill="#00a8da" transform="matrix(.00698126 -.99997563 .99997563 .00698126 14.5 171.4)"/><path d="m84.199997 62.299999h2.6v2.65h-2.6z" fill="#00a8da" transform="matrix(.00698126 -.99997563 .99997563 .00698126 21.3 148.7)"/><path d="m93.599998 85.300003h2.6v2.65h-2.6z" fill="#00a8da" transform="matrix(.00698126 -.99997563 .99997563 .00698126 7.6 180.9)"/><path d="m55.099998 46.599998h2.6v2.65h-2.6z" fill="#00a8da" transform="matrix(.00698126 -.99997563 .99997563 .00698126 8.099999 103.9)"/><path d="m63.400002 48.200001h2.6v2.65h-2.6z" fill="#00a8da" transform="matrix(.00698126 -.99997563 .99997563 .00698126 14.7 113.899999)"/><path d="m23.5 56.400002h2.6v2.65h-2.6z" fill="#00a8da" transform="matrix(.00698126 -.99997563 .99997563 .00698126 -33.1 82.1)"/><path d="m8.2 85.400002h2.6v2.65h-2.6z" fill="#00a8da" transform="matrix(.00698126 -.99997563 .99997563 .00698126 -77.2 95.6)"/><path d="m78.400002 56.400002h2.6v2.65h-2.6z" fill="#00a8da" transform="matrix(.00698126 -.99997563 .99997563 .00698126 21.4 137)"/><path d="m9.8 77.099998h2.6v2.65h-2.6z" fill="#00a8da" transform="matrix(.00698126 -.99997563 .99997563 .00698126 -67.4 88.999999)"/><path d="m38.299999 48.299999h2.6v2.65h-2.6z" fill="#00a8da" transform="matrix(.00698126 -.99997563 .99997563 .00698126 -10.2 88.900001)"/><path d="m13 69.300003h2.6v2.65h-2.6z" fill="#00a8da" transform="matrix(.00698126 -.99997563 .99997563 .00698126 -56.4 84.400001)"/><path d="m17.700001 62.299999h2.6v2.65h-2.6z" fill="#00a8da" transform="matrix(.00698126 -.99997563 .99997563 .00698126 -44.7 82.1)"/><path d="m30.6 51.700001h2.6v2.65h-2.6z" fill="#00a8da" transform="matrix(.99997563 -.00698126 .00698126 .99997563 -.4 .2)"/><path d="m46.599998 46.599998h2.6v2.65h-2.6z" fill="#00a8da" transform="matrix(.99997563 -.00698126 .00698126 .99997563 -.3 .3)"/><path d="m71.199997 51.700001h2.6v2.65h-2.6z" fill="#00a8da" transform="matrix(.00698126 -.99997563 .99997563 .00698126 19.1 125.2)"/><path d="m93.599998 85.300003h2.6v2.65h-2.6z" fill="#00a8da" transform="matrix(.00698126 -.99997563 .99997563 .00698126 7.6 180.9)"/><path d="m55.099998 46.599998h2.6v2.65h-2.6z" fill="#00a8da" transform="matrix(.00698126 -.99997563 .99997563 .00698126 8.099999 103.9)"/><path d="m63.400002 48.200001h2.6v2.65h-2.6z" fill="#00a8da" transform="matrix(.00698126 -.99997563 .99997563 .00698126 14.7 113.899999)"/><path d="m78.400002 122.6h2.6v2.65h-2.6z" fill="#00a8da" transform="matrix(.00698126 -.99997563 .99997563 .00698126 -44.8 202.8)"/><path d="m93.599998 93.599998h2.6v2.65h-2.6z" fill="#00a8da" transform="matrix(.00698126 -.99997563 .99997563 .00698126 -.7 189.2)"/><path d="m23.5 122.6h2.6v2.65h-2.6z" fill="#00a8da" transform="matrix(.00698126 -.99997563 .99997563 .00698126 -99.300002 147.900002)"/><path d="m92.199997 102h2.6v2.65h-2.6z" fill="#00a8da" transform="matrix(.00698126 -.99997563 .99997563 .00698126 -10.4 196.1)"/><path d="m63.400002 130.7h2.6v2.65h-2.6z" fill="#00a8da" transform="matrix(.00698126 -.99997563 .99997563 .00698126 -67.800004 195.900003)"/><path d="m88.800003 109.8h2.6v2.65h-2.6z" fill="#00a8da" transform="matrix(.00698126 -.99997563 .99997563 .00698126 -21.599998 200.499997)"/><path d="m84.199997 116.8h2.6v2.65h-2.6z" fill="#00a8da" transform="matrix(.00698126 -.99997563 .99997563 .00698126 -33.200004 202.900003)"/><path d="m71.199997 127.5h2.6v2.65h-2.6z" fill="#00a8da" transform="matrix(.99997563 -.00698126 .00698126 .99997563 -.9 .5)"/><path d="m55.200001 132.39999h2.6v2.65h-2.6z" fill="#00a8da" transform="matrix(.99997563 -.00698126 .00698126 .99997563 -.9 .4)"/><path d="m30.6 127.6h2.6v2.65h-2.6z" fill="#00a8da" transform="matrix(.00698126 -.99997563 .99997563 .00698126 -97.199998 159.899998)"/><path d="m12.9 109.7h2.6v2.65h-2.6z" fill="#00a8da" transform="matrix(.00698126 -.99997563 .99997563 .00698126 -96.899999 124.499999)"/><path d="m9.8 102h2.6v2.65h-2.6z" fill="#00a8da" transform="matrix(.00698126 -.99997563 .99997563 .00698126 -92.300002 113.700003)"/><path d="m17.6 116.8h2.6v2.65h-2.6z" fill="#00a8da" transform="matrix(.00698126 -.99997563 .99997563 .00698126 -99.300002 136.300002)"/><path d="m8.2 93.699997h2.6v2.65h-2.6z" fill="#00a8da" transform="matrix(.00698126 -.99997563 .99997563 .00698126 -85.5 103.8)"/><path d="m46.700001 132.39999h2.6v2.65h-2.6z" fill="#00a8da" transform="matrix(.00698126 -.99997563 .99997563 .00698126 -86.000001 180.8)"/><path d="m38.400002 130.7h2.6v2.65h-2.6z" fill="#00a8da" transform="matrix(.00698126 -.99997563 .99997563 .00698126 -92.700002 170.800001)"/></g></svg>