<?xml version="1.0" encoding="UTF-8" standalone="no"?>
<!-- Created with Inkscape (http://www.inkscape.org/) -->

<svg
   xmlns:dc="http://purl.org/dc/elements/1.1/"
   xmlns:cc="http://creativecommons.org/ns#"
   xmlns:rdf="http://www.w3.org/1999/02/22-rdf-syntax-ns#"
   xmlns:svg="http://www.w3.org/2000/svg"
   xmlns="http://www.w3.org/2000/svg"
   xmlns:xlink="http://www.w3.org/1999/xlink"
   xmlns:sodipodi="http://sodipodi.sourceforge.net/DTD/sodipodi-0.dtd"
   xmlns:inkscape="http://www.inkscape.org/namespaces/inkscape"
   width="96"
   height="96"
   id="svg6517"
   version="1.1"
   inkscape:version="0.91+devel r"
   sodipodi:docname="haproxy_circle.svg"
   viewBox="0 0 96 96">
  <defs
     id="defs6519">
    <linearGradient
       id="Background">
      <stop
         id="stop4178"
         offset="0"
         style="stop-color:#dedede;stop-opacity:1" />
      <stop
         id="stop4180"
         offset="1"
         style="stop-color:#ededed;stop-opacity:1" />
    </linearGradient>
    <filter
       style="color-interpolation-filters:sRGB"
       inkscape:label="Inner Shadow"
       id="filter1121">
      <feFlood
         flood-opacity="0.59999999999999998"
         flood-color="rgb(0,0,0)"
         result="flood"
         id="feFlood1123" />
      <feComposite
         in="flood"
         in2="SourceGraphic"
         operator="out"
         result="composite1"
         id="feComposite1125" />
      <feGaussianBlur
         in="composite1"
         stdDeviation="1"
         result="blur"
         id="feGaussianBlur1127" />
      <feOffset
         dx="0"
         dy="2"
         result="offset"
         id="feOffset1129" />
      <feComposite
         in="offset"
         in2="SourceGraphic"
         operator="atop"
         result="composite2"
         id="feComposite1131" />
    </filter>
    <filter
       style="color-interpolation-filters:sRGB"
       inkscape:label="Drop Shadow"
       id="filter950">
      <feFlood
         flood-opacity="0.25"
         flood-color="rgb(0,0,0)"
         result="flood"
         id="feFlood952" />
      <feComposite
         in="flood"
         in2="SourceGraphic"
         operator="in"
         result="composite1"
         id="feComposite954" />
      <feGaussianBlur
         in="composite1"
         stdDeviation="1"
         result="blur"
         id="feGaussianBlur956" />
      <feOffset
         dx="0"
         dy="1"
         result="offset"
         id="feOffset958" />
      <feComposite
         in="SourceGraphic"
         in2="offset"
         operator="over"
         result="composite2"
         id="feComposite960" />
    </filter>
    <clipPath
       clipPathUnits="userSpaceOnUse"
       id="clipPath873">
      <g
         transform="matrix(0,-0.66666667,0.66604479,0,-258.25992,677.00001)"
         id="g875"
         inkscape:label="Layer 1"
         style="display:inline;fill:#ff00ff;fill-opacity:1;stroke:none">
        <path
           style="display:inline;fill:#ff00ff;fill-opacity:1;stroke:none"
           d="M 46.702703,898.22775 H 97.297297 C 138.16216,898.22775 144,904.06497 144,944.92583 v 50.73846 c 0,40.86071 -5.83784,46.69791 -46.702703,46.69791 H 46.702703 C 5.8378378,1042.3622 0,1036.525 0,995.66429 v -50.73846 c 0,-40.86086 5.8378378,-46.69808 46.702703,-46.69808 z"
           id="path877"
           inkscape:connector-curvature="0"
           sodipodi:nodetypes="sssssssss" />
      </g>
    </clipPath>
    <linearGradient
       id="linearGradient3804">
      <stop
         id="stop3806"
         offset="0"
         style="stop-color:#ffff00;stop-opacity:1;" />
      <stop
         id="stop3808"
         offset="1"
         style="stop-color:#a8650a;stop-opacity:0;" />
    </linearGradient>
    <linearGradient
       id="linearGradient3778">
      <stop
         id="stop3780"
         offset="0"
         style="stop-color:#ffff00;stop-opacity:0.84536082;" />
      <stop
         id="stop3782"
         offset="1"
         style="stop-color:#a8650a;stop-opacity:0;" />
    </linearGradient>
    <linearGradient
       id="linearGradient3725">
      <stop
         id="stop3727"
         offset="0"
         style="stop-color:#0000ff;stop-opacity:1;" />
      <stop
         id="stop3729"
         offset="1"
         style="stop-color:#000000;stop-opacity:0" />
    </linearGradient>
    <linearGradient
       id="linearGradient3715">
      <stop
         style="stop-color:#3700d0;stop-opacity:1;"
         offset="0"
         id="stop3717" />
      <stop
         style="stop-color: rgb(0, 0, 0); stop-opacity: 0;"
         offset="1"
         id="stop3719" />
    </linearGradient>
    <linearGradient
       id="linearGradient3705">
      <stop
         style="stop-color:#ff0000;stop-opacity:0.54639173;"
         offset="0"
         id="stop3707" />
      <stop
         style="stop-color:#ff0067;stop-opacity:0.42268041;"
         offset="1"
         id="stop3709" />
    </linearGradient>
    <linearGradient
       id="linearGradient3699">
      <stop
         style="stop-color:#d80000;stop-opacity:1;"
         offset="0"
         id="stop3701" />
      <stop
         style="stop-color: rgb(136, 0, 170); stop-opacity: 0;"
         offset="1"
         id="stop3703" />
    </linearGradient>
    <linearGradient
       id="linearGradient3693">
      <stop
         style="stop-color:#4700aa;stop-opacity:1;"
         offset="0"
         id="stop3695" />
      <stop
         style="stop-color: rgb(136, 0, 170); stop-opacity: 0;"
         offset="1"
         id="stop3697" />
    </linearGradient>
    <linearGradient
       id="linearGradient3687">
      <stop
         style="stop-color:#cd00ff;stop-opacity:1;"
         offset="0"
         id="stop3689" />
      <stop
         style="stop-color:#ff00ff;stop-opacity:0;"
         offset="1"
         id="stop3691" />
    </linearGradient>
    <linearGradient
       id="linearGradient3681">
      <stop
         style="stop-color:#ffff00;stop-opacity:1;"
         offset="0"
         id="stop3683" />
      <stop
         style="stop-color:#a8650a;stop-opacity:0.45360824;"
         offset="1"
         id="stop3685" />
    </linearGradient>
    <linearGradient
       id="linearGradient3265"
       inkscape:collect="always">
      <stop
         id="stop3267"
         offset="0"
         style="stop-color: rgb(128, 101, 10); stop-opacity: 1;" />
      <stop
         id="stop3269"
         offset="1"
         style="stop-color: rgb(128, 101, 10); stop-opacity: 0;" />
    </linearGradient>
    <linearGradient
       id="linearGradient3255"
       inkscape:collect="always">
      <stop
         id="stop3257"
         offset="0"
         style="stop-color: rgb(6, 46, 5); stop-opacity: 1;" />
      <stop
         id="stop3259"
         offset="1"
         style="stop-color: rgb(6, 46, 5); stop-opacity: 0;" />
    </linearGradient>
    <linearGradient
       id="linearGradient3238"
       inkscape:collect="always">
      <stop
         id="stop3240"
         offset="0"
         style="stop-color: rgb(0, 0, 0); stop-opacity: 1;" />
      <stop
         id="stop3242"
         offset="1"
         style="stop-color: rgb(0, 0, 0); stop-opacity: 0;" />
    </linearGradient>
    <linearGradient
       id="linearGradient3230">
      <stop
         id="stop3232"
         offset="0"
         style="stop-color:#ea009b;stop-opacity:1;" />
      <stop
         id="stop3234"
         offset="1"
         style="stop-color: rgb(209, 249, 208); stop-opacity: 0;" />
    </linearGradient>
    <linearGradient
       id="linearGradient3218"
       inkscape:collect="always">
      <stop
         id="stop3220"
         offset="0"
         style="stop-color: rgb(136, 0, 170); stop-opacity: 1;" />
      <stop
         id="stop3222"
         offset="1"
         style="stop-color: rgb(136, 0, 170); stop-opacity: 0;" />
    </linearGradient>
    <linearGradient
       id="linearGradient3208"
       inkscape:collect="always">
      <stop
         id="stop3210"
         offset="0"
         style="stop-color: rgb(36, 216, 31); stop-opacity: 1;" />
      <stop
         id="stop3212"
         offset="1"
         style="stop-color: rgb(36, 216, 31); stop-opacity: 0;" />
    </linearGradient>
    <linearGradient
       id="linearGradient3184">
      <stop
         id="stop3186"
         offset="0"
         style="stop-color:#4200d2;stop-opacity:1;" />
      <stop
         id="stop3188"
         offset="1"
         style="stop-color:#d42aff;stop-opacity:0;" />
    </linearGradient>
    <linearGradient
       id="linearGradient3174"
       inkscape:collect="always">
      <stop
         id="stop3176"
         offset="0"
         style="stop-color: rgb(0, 255, 0); stop-opacity: 1;" />
      <stop
         id="stop3178"
         offset="1"
         style="stop-color: rgb(0, 255, 0); stop-opacity: 0;" />
    </linearGradient>
    <linearGradient
       id="linearGradient3166"
       inkscape:collect="always">
      <stop
         id="stop3168"
         offset="0"
         style="stop-color: rgb(0, 0, 0); stop-opacity: 1;" />
      <stop
         id="stop3170"
         offset="1"
         style="stop-color: rgb(0, 0, 0); stop-opacity: 0;" />
    </linearGradient>
    <inkscape:perspective
       id="perspective10"
       inkscape:persp3d-origin="372.04724 : 350.78739 : 1"
       inkscape:vp_z="744.09448 : 526.18109 : 1"
       inkscape:vp_y="0 : 1000 : 0"
       inkscape:vp_x="0 : 526.18109 : 1"
       sodipodi:type="inkscape:persp3d" />
    <radialGradient
       gradientUnits="userSpaceOnUse"
       gradientTransform="matrix(-0.494423,0.557841,-0.0571339,-0.0506386,574.709,172.771)"
       r="387.20236"
       fy="591.35339"
       fx="550.08392"
       cy="285.88779"
       cx="532.46472"
       id="radialGradient3172"
       xlink:href="#linearGradient3166"
       inkscape:collect="always" />
    <radialGradient
       gradientUnits="userSpaceOnUse"
       gradientTransform="matrix(-0.891785,0.710204,-0.167643,-0.210506,784.203,143.25)"
       r="341.54269"
       fy="365.94858"
       fx="366.26318"
       cy="264.81027"
       cx="358.89481"
       id="radialGradient3180"
       xlink:href="#linearGradient3174"
       inkscape:collect="always" />
    <radialGradient
       gradientUnits="userSpaceOnUse"
       gradientTransform="matrix(0.0535194,0.240555,-0.25246,0.0561682,594.109,175.714)"
       r="341.54269"
       fy="458.25589"
       fx="94.384689"
       cy="-329.47144"
       cx="-123.89793"
       id="radialGradient3190"
       xlink:href="#linearGradient3184"
       inkscape:collect="always" />
    <radialGradient
       r="341.54269"
       fy="2532.9556"
       fx="1171.3812"
       cy="1745.2283"
       cx="953.09863"
       gradientTransform="matrix(-0.799109,1.20289,-0.215429,-0.143114,1342.12,-393.698)"
       gradientUnits="userSpaceOnUse"
       id="radialGradient3196"
       xlink:href="#linearGradient3184"
       inkscape:collect="always" />
    <radialGradient
       gradientUnits="userSpaceOnUse"
       gradientTransform="matrix(-0.708646,0.695949,-0.0534938,-0.0544698,678.617,96.3944)"
       r="387.20236"
       fy="112.9155"
       fx="265.33652"
       cy="112.9155"
       cx="265.33652"
       id="radialGradient3214"
       xlink:href="#linearGradient3208"
       inkscape:collect="always" />
    <radialGradient
       gradientUnits="userSpaceOnUse"
       gradientTransform="matrix(-0.587406,0.882116,-0.0635452,-0.0423151,614.582,-21.6959)"
       r="387.20236"
       fy="822.37018"
       fx="643.4671"
       cy="822.37018"
       cx="643.4671"
       id="radialGradient3224"
       xlink:href="#linearGradient3218"
       inkscape:collect="always" />
    <radialGradient
       r="261.01752"
       fy="359.91214"
       fx="269.14313"
       cy="359.91214"
       cx="269.14313"
       gradientTransform="matrix(0.995746,-0.092136,0.0432441,0.467355,-14.4193,214.816)"
       gradientUnits="userSpaceOnUse"
       id="radialGradient3247"
       xlink:href="#linearGradient3230"
       inkscape:collect="always" />
    <linearGradient
       y2="343.26953"
       x2="683.2619"
       y1="343.26953"
       x1="160.72688"
       gradientUnits="userSpaceOnUse"
       id="linearGradient3249"
       xlink:href="#linearGradient3238"
       inkscape:collect="always" />
    <linearGradient
       gradientUnits="userSpaceOnUse"
       y2="433.9859"
       x2="423.5657"
       y1="286.36237"
       x1="178.96744"
       id="linearGradient3261"
       xlink:href="#linearGradient3255"
       inkscape:collect="always" />
    <linearGradient
       gradientUnits="userSpaceOnUse"
       y2="392.58377"
       x2="211.4249"
       y1="525.77362"
       x1="305.08151"
       id="linearGradient3271"
       xlink:href="#linearGradient3265"
       inkscape:collect="always" />
    <linearGradient
       y2="182.92722"
       x2="575.84485"
       y1="896.03613"
       x1="62.954094"
       gradientUnits="userSpaceOnUse"
       id="linearGradient3273"
       xlink:href="#linearGradient3238"
       inkscape:collect="always" />
    <radialGradient
       r="341.54269"
       fy="171.25964"
       fx="111.92719"
       cy="-281.50812"
       cx="-93.078583"
       gradientTransform="matrix(0.00992337,0.211449,-0.21858808,0.01025848,618.08492,92.108346)"
       gradientUnits="userSpaceOnUse"
       id="radialGradient2898"
       xlink:href="#linearGradient3681"
       inkscape:collect="always" />
    <radialGradient
       r="341.54269"
       fy="96.148193"
       fx="24.759563"
       cy="-354.71207"
       cx="-87.81189"
       gradientTransform="matrix(0.09043196,0.32507183,-0.31092818,0.08649758,596.97751,122.70512)"
       gradientUnits="userSpaceOnUse"
       id="radialGradient3784"
       xlink:href="#linearGradient3778"
       inkscape:collect="always" />
    <radialGradient
       r="341.54269"
       fy="96.148193"
       fx="24.759563"
       cy="-354.71207"
       cx="-87.81189"
       gradientTransform="matrix(0.07268626,0.18310621,-0.29996546,0.11907513,599.30783,121.7945)"
       gradientUnits="userSpaceOnUse"
       id="radialGradient3792"
       xlink:href="#linearGradient3778"
       inkscape:collect="always" />
    <radialGradient
       r="341.54269"
       fy="102.30288"
       fx="44.23732"
       cy="-348.5574"
       cx="-68.334137"
       gradientTransform="matrix(0.07236427,0.28494076,-0.31674195,0.08044081,593.86868,117.04855)"
       gradientUnits="userSpaceOnUse"
       id="radialGradient3796"
       xlink:href="#linearGradient3778"
       inkscape:collect="always" />
    <clipPath
       id="clipPath128-8">
      <path
         id="path130-6"
         d="m 91.7368,146.3253 -9.7039,-1.577 -8.8548,-3.8814 -7.5206,-4.7308 -7.1566,-8.7335 -4.0431,-4.282 -3.9093,-1.4409 -1.034,2.5271 1.8079,2.6096 0.4062,3.6802 1.211,-0.0488 1.3232,-1.2069 -0.3569,3.7488 -1.4667,0.9839 0.0445,1.4286 -3.4744,-1.9655 -3.1462,-3.712 -0.6559,-3.3176 1.3453,-2.6567 1.2549,-4.5133 2.5521,-1.2084 2.6847,0.1318 2.5455,1.4791 -1.698,-8.6122 1.698,-9.5825 -1.8692,-4.4246 -6.1223,-6.5965 1.0885,-3.941 2.9002,-4.5669 5.4688,-3.8486 2.9007,-0.3969 3.225,-0.1094 -2.012,-8.2601 7.3993,-3.0326 9.2188,-1.2129 3.1535,2.0619 0.2427,5.5797 3.5178,5.8224 0.2426,4.6094 8.4909,-0.6066 7.8843,0.7279 -7.8843,-4.7307 1.3343,-5.701 4.9731,-7.763 4.8521,-2.0622 3.8814,1.5769 1.577,3.1538 8.1269,6.1861 1.5769,-1.3343 12.7363,-0.485 2.5473,2.0619 0.2426,3.6391 -0.849,1.5767 -0.6066,9.8251 -4.2454,8.4909 0.7276,3.7605 2.5475,-1.3343 7.1566,-6.6716 3.5175,-0.2424 3.8815,1.5769 3.8818,2.9109 1.9406,6.3077 11.4021,-0.7277 6.914,2.6686 5.5797,5.2157 4.0028,7.5206 0.9706,8.8546 -0.8493,10.3105 -2.1832,9.2185 -2.1836,2.9112 -3.0322,0.9706 -5.3373,-5.8224 -4.8518,-1.6982 -4.2455,7.0353 -4.2454,3.8815 -2.3049,1.4556 -9.2185,7.6419 -7.3993,4.0028 -7.3993,0.6066 -8.6119,-1.4556 -7.5206,-2.7899 -5.2158,-4.2454 -4.1241,-4.9734 -4.2454,-1.2129"
         inkscape:connector-curvature="0" />
    </clipPath>
    <clipPath
       id="clipPath128-8-1">
      <path
         id="path130-6-6"
         d="m 91.7368,146.3253 -9.7039,-1.577 -8.8548,-3.8814 -7.5206,-4.7308 -7.1566,-8.7335 -4.0431,-4.282 -3.9093,-1.4409 -1.034,2.5271 1.8079,2.6096 0.4062,3.6802 1.211,-0.0488 1.3232,-1.2069 -0.3569,3.7488 -1.4667,0.9839 0.0445,1.4286 -3.4744,-1.9655 -3.1462,-3.712 -0.6559,-3.3176 1.3453,-2.6567 1.2549,-4.5133 2.5521,-1.2084 2.6847,0.1318 2.5455,1.4791 -1.698,-8.6122 1.698,-9.5825 -1.8692,-4.4246 -6.1223,-6.5965 1.0885,-3.941 2.9002,-4.5669 5.4688,-3.8486 2.9007,-0.3969 3.225,-0.1094 -2.012,-8.2601 7.3993,-3.0326 9.2188,-1.2129 3.1535,2.0619 0.2427,5.5797 3.5178,5.8224 0.2426,4.6094 8.4909,-0.6066 7.8843,0.7279 -7.8843,-4.7307 1.3343,-5.701 4.9731,-7.763 4.8521,-2.0622 3.8814,1.5769 1.577,3.1538 8.1269,6.1861 1.5769,-1.3343 12.7363,-0.485 2.5473,2.0619 0.2426,3.6391 -0.849,1.5767 -0.6066,9.8251 -4.2454,8.4909 0.7276,3.7605 2.5475,-1.3343 7.1566,-6.6716 3.5175,-0.2424 3.8815,1.5769 3.8818,2.9109 1.9406,6.3077 11.4021,-0.7277 6.914,2.6686 5.5797,5.2157 4.0028,7.5206 0.9706,8.8546 -0.8493,10.3105 -2.1832,9.2185 -2.1836,2.9112 -3.0322,0.9706 -5.3373,-5.8224 -4.8518,-1.6982 -4.2455,7.0353 -4.2454,3.8815 -2.3049,1.4556 -9.2185,7.6419 -7.3993,4.0028 -7.3993,0.6066 -8.6119,-1.4556 -7.5206,-2.7899 -5.2158,-4.2454 -4.1241,-4.9734 -4.2454,-1.2129"
         inkscape:connector-curvature="0" />
    </clipPath>
    <clipPath
       id="clipPath128-8-12">
      <path
         id="path130-6-4"
         d="m 91.7368,146.3253 -9.7039,-1.577 -8.8548,-3.8814 -7.5206,-4.7308 -7.1566,-8.7335 -4.0431,-4.282 -3.9093,-1.4409 -1.034,2.5271 1.8079,2.6096 0.4062,3.6802 1.211,-0.0488 1.3232,-1.2069 -0.3569,3.7488 -1.4667,0.9839 0.0445,1.4286 -3.4744,-1.9655 -3.1462,-3.712 -0.6559,-3.3176 1.3453,-2.6567 1.2549,-4.5133 2.5521,-1.2084 2.6847,0.1318 2.5455,1.4791 -1.698,-8.6122 1.698,-9.5825 -1.8692,-4.4246 -6.1223,-6.5965 1.0885,-3.941 2.9002,-4.5669 5.4688,-3.8486 2.9007,-0.3969 3.225,-0.1094 -2.012,-8.2601 7.3993,-3.0326 9.2188,-1.2129 3.1535,2.0619 0.2427,5.5797 3.5178,5.8224 0.2426,4.6094 8.4909,-0.6066 7.8843,0.7279 -7.8843,-4.7307 1.3343,-5.701 4.9731,-7.763 4.8521,-2.0622 3.8814,1.5769 1.577,3.1538 8.1269,6.1861 1.5769,-1.3343 12.7363,-0.485 2.5473,2.0619 0.2426,3.6391 -0.849,1.5767 -0.6066,9.8251 -4.2454,8.4909 0.7276,3.7605 2.5475,-1.3343 7.1566,-6.6716 3.5175,-0.2424 3.8815,1.5769 3.8818,2.9109 1.9406,6.3077 11.4021,-0.7277 6.914,2.6686 5.5797,5.2157 4.0028,7.5206 0.9706,8.8546 -0.8493,10.3105 -2.1832,9.2185 -2.1836,2.9112 -3.0322,0.9706 -5.3373,-5.8224 -4.8518,-1.6982 -4.2455,7.0353 -4.2454,3.8815 -2.3049,1.4556 -9.2185,7.6419 -7.3993,4.0028 -7.3993,0.6066 -8.6119,-1.4556 -7.5206,-2.7899 -5.2158,-4.2454 -4.1241,-4.9734 -4.2454,-1.2129"
         inkscape:connector-curvature="0" />
    </clipPath>
    <clipPath
       id="clipPath128-8-4">
      <path
         id="path130-6-2"
         d="m 91.7368,146.3253 -9.7039,-1.577 -8.8548,-3.8814 -7.5206,-4.7308 -7.1566,-8.7335 -4.0431,-4.282 -3.9093,-1.4409 -1.034,2.5271 1.8079,2.6096 0.4062,3.6802 1.211,-0.0488 1.3232,-1.2069 -0.3569,3.7488 -1.4667,0.9839 0.0445,1.4286 -3.4744,-1.9655 -3.1462,-3.712 -0.6559,-3.3176 1.3453,-2.6567 1.2549,-4.5133 2.5521,-1.2084 2.6847,0.1318 2.5455,1.4791 -1.698,-8.6122 1.698,-9.5825 -1.8692,-4.4246 -6.1223,-6.5965 1.0885,-3.941 2.9002,-4.5669 5.4688,-3.8486 2.9007,-0.3969 3.225,-0.1094 -2.012,-8.2601 7.3993,-3.0326 9.2188,-1.2129 3.1535,2.0619 0.2427,5.5797 3.5178,5.8224 0.2426,4.6094 8.4909,-0.6066 7.8843,0.7279 -7.8843,-4.7307 1.3343,-5.701 4.9731,-7.763 4.8521,-2.0622 3.8814,1.5769 1.577,3.1538 8.1269,6.1861 1.5769,-1.3343 12.7363,-0.485 2.5473,2.0619 0.2426,3.6391 -0.849,1.5767 -0.6066,9.8251 -4.2454,8.4909 0.7276,3.7605 2.5475,-1.3343 7.1566,-6.6716 3.5175,-0.2424 3.8815,1.5769 3.8818,2.9109 1.9406,6.3077 11.4021,-0.7277 6.914,2.6686 5.5797,5.2157 4.0028,7.5206 0.9706,8.8546 -0.8493,10.3105 -2.1832,9.2185 -2.1836,2.9112 -3.0322,0.9706 -5.3373,-5.8224 -4.8518,-1.6982 -4.2455,7.0353 -4.2454,3.8815 -2.3049,1.4556 -9.2185,7.6419 -7.3993,4.0028 -7.3993,0.6066 -8.6119,-1.4556 -7.5206,-2.7899 -5.2158,-4.2454 -4.1241,-4.9734 -4.2454,-1.2129"
         inkscape:connector-curvature="0" />
    </clipPath>
    <clipPath
       id="clipPath128-8-7">
      <path
         id="path130-6-9"
         d="m 91.7368,146.3253 -9.7039,-1.577 -8.8548,-3.8814 -7.5206,-4.7308 -7.1566,-8.7335 -4.0431,-4.282 -3.9093,-1.4409 -1.034,2.5271 1.8079,2.6096 0.4062,3.6802 1.211,-0.0488 1.3232,-1.2069 -0.3569,3.7488 -1.4667,0.9839 0.0445,1.4286 -3.4744,-1.9655 -3.1462,-3.712 -0.6559,-3.3176 1.3453,-2.6567 1.2549,-4.5133 2.5521,-1.2084 2.6847,0.1318 2.5455,1.4791 -1.698,-8.6122 1.698,-9.5825 -1.8692,-4.4246 -6.1223,-6.5965 1.0885,-3.941 2.9002,-4.5669 5.4688,-3.8486 2.9007,-0.3969 3.225,-0.1094 -2.012,-8.2601 7.3993,-3.0326 9.2188,-1.2129 3.1535,2.0619 0.2427,5.5797 3.5178,5.8224 0.2426,4.6094 8.4909,-0.6066 7.8843,0.7279 -7.8843,-4.7307 1.3343,-5.701 4.9731,-7.763 4.8521,-2.0622 3.8814,1.5769 1.577,3.1538 8.1269,6.1861 1.5769,-1.3343 12.7363,-0.485 2.5473,2.0619 0.2426,3.6391 -0.849,1.5767 -0.6066,9.8251 -4.2454,8.4909 0.7276,3.7605 2.5475,-1.3343 7.1566,-6.6716 3.5175,-0.2424 3.8815,1.5769 3.8818,2.9109 1.9406,6.3077 11.4021,-0.7277 6.914,2.6686 5.5797,5.2157 4.0028,7.5206 0.9706,8.8546 -0.8493,10.3105 -2.1832,9.2185 -2.1836,2.9112 -3.0322,0.9706 -5.3373,-5.8224 -4.8518,-1.6982 -4.2455,7.0353 -4.2454,3.8815 -2.3049,1.4556 -9.2185,7.6419 -7.3993,4.0028 -7.3993,0.6066 -8.6119,-1.4556 -7.5206,-2.7899 -5.2158,-4.2454 -4.1241,-4.9734 -4.2454,-1.2129"
         inkscape:connector-curvature="0" />
    </clipPath>
    <clipPath
       id="clipPath128-8-2">
      <path
         id="path130-6-6-0"
         d="m 91.7368,146.3253 -9.7039,-1.577 -8.8548,-3.8814 -7.5206,-4.7308 -7.1566,-8.7335 -4.0431,-4.282 -3.9093,-1.4409 -1.034,2.5271 1.8079,2.6096 0.4062,3.6802 1.211,-0.0488 1.3232,-1.2069 -0.3569,3.7488 -1.4667,0.9839 0.0445,1.4286 -3.4744,-1.9655 -3.1462,-3.712 -0.6559,-3.3176 1.3453,-2.6567 1.2549,-4.5133 2.5521,-1.2084 2.6847,0.1318 2.5455,1.4791 -1.698,-8.6122 1.698,-9.5825 -1.8692,-4.4246 -6.1223,-6.5965 1.0885,-3.941 2.9002,-4.5669 5.4688,-3.8486 2.9007,-0.3969 3.225,-0.1094 -2.012,-8.2601 7.3993,-3.0326 9.2188,-1.2129 3.1535,2.0619 0.2427,5.5797 3.5178,5.8224 0.2426,4.6094 8.4909,-0.6066 7.8843,0.7279 -7.8843,-4.7307 1.3343,-5.701 4.9731,-7.763 4.8521,-2.0622 3.8814,1.5769 1.577,3.1538 8.1269,6.1861 1.5769,-1.3343 12.7363,-0.485 2.5473,2.0619 0.2426,3.6391 -0.849,1.5767 -0.6066,9.8251 -4.2454,8.4909 0.7276,3.7605 2.5475,-1.3343 7.1566,-6.6716 3.5175,-0.2424 3.8815,1.5769 3.8818,2.9109 1.9406,6.3077 11.4021,-0.7277 6.914,2.6686 5.5797,5.2157 4.0028,7.5206 0.9706,8.8546 -0.8493,10.3105 -2.1832,9.2185 -2.1836,2.9112 -3.0322,0.9706 -5.3373,-5.8224 -4.8518,-1.6982 -4.2455,7.0353 -4.2454,3.8815 -2.3049,1.4556 -9.2185,7.6419 -7.3993,4.0028 -7.3993,0.6066 -8.6119,-1.4556 -7.5206,-2.7899 -5.2158,-4.2454 -4.1241,-4.9734 -4.2454,-1.2129"
         inkscape:connector-curvature="0" />
    </clipPath>
  </defs>
  <sodipodi:namedview
     id="base"
     pagecolor="#ffffff"
     bordercolor="#666666"
     borderopacity="1.0"
     inkscape:pageopacity="0.0"
     inkscape:pageshadow="2"
     inkscape:zoom="2.0861625"
     inkscape:cx="-360.00574"
     inkscape:cy="-22.6606"
     inkscape:document-units="px"
     inkscape:current-layer="layer2"
     showgrid="false"
     fit-margin-top="0"
     fit-margin-left="0"
     fit-margin-right="0"
     fit-margin-bottom="0"
     inkscape:window-width="1920"
     inkscape:window-height="1029"
     inkscape:window-x="0"
     inkscape:window-y="24"
     inkscape:window-maximized="1"
     showborder="true"
     showguides="false"
     inkscape:guide-bbox="true"
     inkscape:showpageshadow="false"
     inkscape:snap-global="true"
     inkscape:snap-bbox="true"
     inkscape:bbox-paths="true"
     inkscape:bbox-nodes="true"
     inkscape:snap-bbox-edge-midpoints="true"
     inkscape:snap-bbox-midpoints="true"
     inkscape:object-paths="true"
     inkscape:snap-intersection-paths="true"
     inkscape:object-nodes="true"
     inkscape:snap-smooth-nodes="true"
     inkscape:snap-midpoints="true"
     inkscape:snap-object-midpoints="true"
     inkscape:snap-center="true">
    <inkscape:grid
       type="xygrid"
       id="grid821" />
    <sodipodi:guide
       orientation="1,0"
       position="16,48"
       id="guide823"
       inkscape:locked="false" />
    <sodipodi:guide
       orientation="0,1"
       position="64,80"
       id="guide825"
       inkscape:locked="false" />
    <sodipodi:guide
       orientation="1,0"
       position="80,40"
       id="guide827"
       inkscape:locked="false" />
    <sodipodi:guide
       orientation="0,1"
       position="64,16"
       id="guide829"
       inkscape:locked="false" />
  </sodipodi:namedview>
  <metadata
     id="metadata6522">
    <rdf:RDF>
      <cc:Work
         rdf:about="">
        <dc:format>image/svg+xml</dc:format>
        <dc:type
           rdf:resource="http://purl.org/dc/dcmitype/StillImage" />
        <dc:title />
      </cc:Work>
    </rdf:RDF>
  </metadata>
  <g
     inkscape:groupmode="layer"
     id="layer2"
     inkscape:label="Layer 1">
    <g
       id="g6487"
       transform="matrix(3.7795275,0,0,3.7795275,-28490.036,-2050.7307)"
       style="display:inline;stroke-width:1">
      <path
         id="path6481"
         transform="matrix(0.26458334,0,0,0.26458334,7391.2715,343.08042)"
         d="m 602.52148,754.04883 a 48.000002,48.000002 0 0 0 -48,48 48.000002,48.000002 0 0 0 48,48 48.000002,48.000002 0 0 0 48,-48 48.000002,48.000002 0 0 0 -48,-48 z"
         style="display:inline;fill:#e93549;fill-opacity:1;stroke:none;stroke-width:1"
         inkscape:connector-curvature="0" />
      <path
         inkscape:connector-curvature="0"
         id="path6483"
         d="m 7542.8564,549.38716 v 0.52787 h 0.9379 v 6.31745 h -0.9379 v 0.52323 h 2.8773 v -0.52323 h -0.9379 v -3.1688 h 3.8199 v 3.1688 h -0.9379 v 0.52323 h 2.8773 v -0.52323 h -0.9371 v -6.31745 h 0.9371 v -0.52787 h -2.8773 v 0.52787 h 0.9379 v 2.54636 h -3.8199 v -2.54636 h 0.9379 v -0.52787 z m 11.4791,0 -2.6254,6.84532 h -0.6465 v 0.52323 h 2.0728 v -0.52323 h -0.8093 l 0.617,-1.61928 h 3.0991 l 0.617,1.61928 h -0.8193 v 0.52323 h 2.6797 v -0.52323 h -0.7256 l -2.6301,-6.84532 z m 0.1628,1.1945 1.3527,3.50367 h -2.7045 z"
         style="font-style:normal;font-variant:normal;font-weight:normal;font-stretch:normal;font-size:10.10745335px;line-height:77.99999714%;font-family:serif;-inkscape-font-specification:serif;text-align:center;letter-spacing:0px;word-spacing:0px;writing-mode:lr-tb;text-anchor:middle;fill:#ffffff;fill-opacity:1;stroke:none;stroke-width:0.26458335px;stroke-linecap:butt;stroke-linejoin:miter;stroke-opacity:1" />
      <path
         inkscape:connector-curvature="0"
         id="path6485"
         d="m 7550.6427,557.84634 c -0.2111,0 -0.4032,0.0345 -0.5759,0.1031 -0.1727,0.0672 -0.3261,0.16795 -0.4604,0.3023 -0.1536,0.15355 -0.268,0.32797 -0.3434,0.52401 -0.074,0.19466 -0.1109,0.41616 -0.1109,0.66429 0,0.24814 0.037,0.46964 0.1109,0.66431 0.075,0.19467 0.1898,0.36891 0.3434,0.52245 0.1329,0.13298 0.2863,0.23376 0.4604,0.30231 0.1755,0.0685 0.3675,0.10231 0.5759,0.10231 0.2098,0 0.4009,-0.0336 0.5736,-0.10077 0.1728,-0.0685 0.3269,-0.16951 0.4613,-0.30385 0.1535,-0.15218 0.2679,-0.32641 0.3433,-0.52245 0.075,-0.19741 0.1132,-0.41891 0.1132,-0.66431 0,-0.47845 -0.1375,-0.86374 -0.4116,-1.15574 -0.2742,-0.29201 -0.6342,-0.43796 -1.0798,-0.43796 z m -7.9127,0.0558 v 0.22015 h 0.3907 v 2.63162 h -0.3907 v 0.21859 h 1.2837 v -0.21859 h -0.4752 v -1.12474 h 0.6434 c 0.307,0 0.5506,-0.0778 0.7302,-0.23409 0.1795,-0.15629 0.2689,-0.36621 0.2689,-0.62942 0,-0.26459 -0.089,-0.47451 -0.2689,-0.62942 -0.1796,-0.15629 -0.4232,-0.2341 -0.7302,-0.2341 z m 3.0402,0 v 0.22015 h 0.3914 v 2.63162 h -0.3914 v 0.21859 h 1.2425 v -0.21859 h -0.4341 v -1.20923 h 0.4589 c 0.1344,0 0.2395,0.0283 0.3163,0.0845 0.077,0.0548 0.1608,0.17668 0.2527,0.36587 l 0.4798,0.97746 h 0.7232 v -0.21859 h -0.3736 l -0.4465,-0.9108 c -0.055,-0.11243 -0.1176,-0.19955 -0.1876,-0.26122 -0.069,-0.063 -0.1505,-0.10726 -0.2465,-0.13333 0.2344,-0.0302 0.4107,-0.1057 0.5287,-0.22634 0.1192,-0.12201 0.179,-0.28884 0.179,-0.49997 0,-0.26184 -0.082,-0.46359 -0.2449,-0.60616 -0.1618,-0.14259 -0.3918,-0.21395 -0.6907,-0.21395 z m 6.7654,0 v 0.22015 h 0.3287 l 0.8969,1.34255 -0.8845,1.28907 h -0.3535 v 0.21859 h 1.0163 v -0.21859 h -0.3969 l 0.7503,-1.09606 0.7318,1.09606 h -0.3659 v 0.21859 h 1.2178 v -0.21859 h -0.3295 l -0.9681,-1.44952 0.8123,-1.1821 h 0.345 v -0.22015 h -1.0054 v 0.22015 h 0.3945 l -0.6759,0.98908 -0.6581,-0.98908 h 0.362 v -0.22015 z m 3.1208,0 v 0.22015 h 0.2876 l 0.948,1.52781 v 1.10381 h -0.393 v 0.21859 h 1.2007 v -0.21859 h -0.3922 v -1.14334 l 0.9232,-1.48828 h 0.2899 v -0.22015 h -0.8922 v 0.22015 h 0.3449 l -0.7666,1.24178 -0.7674,-1.24178 h 0.3581 v -0.22015 z m -5.0137,0.16434 c 0.3359,0 0.5899,0.11557 0.7612,0.34726 0.1714,0.23031 0.2566,0.57252 0.2566,1.02629 0,0.45241 -0.085,0.79462 -0.2566,1.0263 -0.1713,0.23032 -0.4253,0.34572 -0.7612,0.34572 -0.3372,-10e-6 -0.5914,-0.1154 -0.7627,-0.34572 -0.1714,-0.23168 -0.2574,-0.57389 -0.2574,-1.0263 0,-0.45377 0.086,-0.79598 0.2574,-1.02629 0.1713,-0.23169 0.4255,-0.34726 0.7627,-0.34726 z m -7.1042,0.0558 h 0.5426 c 0.2043,0 0.3597,0.0547 0.4667,0.16433 0.1069,0.10966 0.1604,0.26928 0.1604,0.47904 0,0.20838 -0.053,0.368 -0.1604,0.47904 -0.107,0.10967 -0.2624,0.16433 -0.4667,0.16433 h -0.5426 z m 3.0401,0 h 0.607 c 0.207,0 0.3594,0.0484 0.4581,0.14572 0.099,0.0973 0.148,0.24861 0.148,0.45424 0,0.20564 -0.049,0.35785 -0.148,0.45656 -0.099,0.0973 -0.2511,0.1465 -0.4581,0.1465 h -0.607 z"
         style="font-style:normal;font-variant:normal;font-weight:normal;font-stretch:normal;font-size:4.21143913px;line-height:77.99999714%;font-family:serif;-inkscape-font-specification:serif;text-align:center;letter-spacing:0.20240645px;word-spacing:0px;writing-mode:lr-tb;text-anchor:middle;fill:#ffffff;fill-opacity:1;stroke:none;stroke-width:0.26458335px;stroke-linecap:butt;stroke-linejoin:miter;stroke-opacity:1" />
    </g>
  </g>
</svg>
